# Blender 5.1.1
# www.blender.org
o leftWall
v -1.020000 1.590000 -1.040000
v -1.020000 1.590000 0.990000
v -1.010000 0.000000 0.990000
v -0.990000 -0.000000 -1.040000
vn 0.9999 0.0135 0.0057
vn 1.0000 0.0063 -0.0000
vn 0.9999 0.0116 0.0042
vn 0.9998 0.0189 0.0098
vt 0.000000 1.000000
s 1
f 1/1/1 2/1/2 3/1/3
f 4/1/4 1/1/1 3/1/3
o rightWall
v 1.000000 1.590000 0.990000
v 1.000000 1.590000 -1.040000
v 1.000000 -0.000000 -1.040000
v 1.000000 0.000000 0.990000
vn -1.0000 -0.0000 -0.0000
vt 0.000000 1.000000
s 1
f 5/2/5 6/2/5 7/2/5
f 8/2/5 5/2/5 7/2/5
o backWall
v 1.000000 1.590000 -1.040000
v -1.020000 1.590000 -1.040000
v -0.990000 -0.000000 -1.040000
v 1.000000 -0.000000 -1.040000
vn -0.0000 -0.0000 1.0000
vt 0.000000 1.000000
s 1
f 9/3/6 10/3/6 11/3/6
f 12/3/6 9/3/6 11/3/6
o ceiling
v 1.000000 1.590000 -1.040000
v 1.000000 1.590000 0.990000
v -1.020000 1.590000 0.990000
v -1.020000 1.590000 -1.040000
vn -0.0000 -1.0000 -0.0000
vt 0.000000 1.000000
s 1
f 13/4/7 14/4/7 15/4/7
f 16/4/7 13/4/7 15/4/7
o floor
v 1.000000 -0.000000 -1.040000
v -0.990000 -0.000000 -1.040000
v -1.010000 0.000000 0.990000
v 1.000000 0.000000 0.990000
vn -0.0000 1.0000 -0.0000
vt 0.000000 1.000000
s 1
f 17/5/8 18/5/8 19/5/8
f 20/5/8 17/5/8 19/5/8
